# xmcd
#
# Track frame offsets: 
#        150
#        18457
#        39419
#        57007
#        76504
#        97195
#        112961
#        136713
#        152735
#        169598
#        184665
#        197780
#        216757
#        232491
#        248273
#
# Disc length: 3559 seconds
#
# Revision: 3
# Processed by: cddbd v1.5.2PL0 Copyright (c) Steve Scherf et al.
# Submitted via: ExactAudioCopyFreeDBPlugin 1.0
#
DISCID=b90de50f
DTITLE=Street Doctors - My Kind of Music is the Blues
DYEAR=2000
DGENRE=Blues
TTITLE0=Got to Work
TTITLE1=My Kind of Music is the Blues
TTITLE2=Jump
TTITLE3=First time I met the blues
TTITLE4=Cryin' shame
TTITLE5=What's the rush
TTITLE6=Sleepin' in the ground
TTITLE7=49 pairs of shoes
TTITLE8=Sad n' lonely
TTITLE9=Love limousine
TTITLE10=Sit down
TTITLE11=Before you accuse me
TTITLE12=Mellow down easy
TTITLE13=Feel so good
TTITLE14=Sugar train to blueshill
EXTD=
EXTT0=
EXTT1=
EXTT2=
EXTT3=
EXTT4=
EXTT5=
EXTT6=
EXTT7=
EXTT8=
EXTT9=
EXTT10=
EXTT11=
EXTT12=
EXTT13=
EXTT14=
PLAYORDER=
